<?xml version="1.0" standalone="no"?>
<!DOCTYPE svg PUBLIC "-//W3C//DTD SVG 20010904//EN"
 "http://www.w3.org/TR/2001/REC-SVG-20010904/DTD/svg10.dtd">
<svg version="1.0" xmlns="http://www.w3.org/2000/svg"
 width="1055.000000pt" height="1280.000000pt" viewBox="0 0 1055.000000 1280.000000"
 preserveAspectRatio="xMidYMid meet">
<metadata>
Created by potrace 1.15, written by Peter Selinger 2001-2017
</metadata>
<g transform="translate(0.000000,1280.000000) scale(0.100000,-0.100000)"
fill="#000000" stroke="none">
<path d="M2605 12790 c-227 -50 -355 -197 -434 -500 -58 -222 -70 -365 -66
-750 2 -200 7 -301 19 -370 35 -201 114 -454 206 -660 63 -142 91 -191 136
-235 l35 -35 -40 -52 c-100 -135 -227 -376 -345 -658 l-65 -155 -88 -17 c-166
-33 -450 -132 -695 -244 -120 -55 -285 -155 -483 -294 -382 -267 -532 -410
-730 -695 -45 -65 -34 -56 146 120 214 210 300 285 496 431 331 248 695 441
1016 538 120 37 284 72 293 64 3 -3 -11 -59 -31 -124 -73 -237 -99 -414 -85
-559 l8 -80 -42 -35 c-80 -67 -249 -236 -309 -310 -121 -150 -375 -552 -488
-774 -62 -121 -161 -347 -155 -353 1 -2 83 134 181 303 199 342 291 484 403
624 80 99 377 404 424 434 26 17 28 17 57 -5 29 -21 31 -21 64 -5 19 9 38 16
42 16 11 0 147 90 213 141 34 27 62 47 62 44 0 -2 -15 -42 -34 -87 -43 -104
-60 -188 -54 -274 4 -61 7 -69 39 -99 20 -18 41 -34 47 -36 7 -3 -7 -41 -38
-101 -192 -372 -301 -832 -304 -1288 -1 -163 2 -201 16 -230 l16 -35 1 50 c2
91 22 319 36 405 8 47 21 137 30 200 40 308 161 660 313 914 l47 78 120 -6
c145 -8 380 -40 453 -62 76 -21 286 -115 356 -158 33 -20 65 -36 71 -36 6 0
101 -43 211 -96 109 -53 227 -109 261 -125 l63 -29 -49 -68 c-27 -37 -109
-175 -181 -307 -139 -251 -268 -444 -533 -795 -316 -419 -487 -602 -687 -739
-118 -81 -195 -117 -425 -201 -396 -143 -568 -233 -641 -331 -78 -106 -93
-192 -64 -356 35 -195 100 -296 210 -324 l48 -12 4 -86 c3 -74 9 -97 42 -166
91 -187 263 -282 497 -273 l85 3 33 -37 c18 -21 63 -52 99 -70 65 -32 70 -33
197 -33 127 0 132 1 198 33 78 39 180 129 231 207 28 41 43 83 66 182 17 70
42 152 55 181 25 55 80 132 94 132 5 0 14 -35 20 -78 27 -164 31 -184 50 -228
26 -58 123 -160 181 -189 92 -46 207 -52 280 -15 57 30 153 144 180 215 l10
27 30 -38 c16 -22 38 -51 49 -65 l20 -25 -45 -80 c-25 -43 -101 -191 -169
-329 -167 -336 -214 -408 -384 -575 -292 -289 -601 -452 -962 -505 -155 -23
-389 -16 -504 15 -158 42 -305 137 -375 242 -68 103 -63 186 20 323 91 148
102 212 66 374 -32 142 -74 231 -140 296 -61 60 -120 90 -211 106 -121 21
-251 0 -380 -61 -177 -85 -313 -248 -423 -508 -104 -247 -144 -419 -144 -622
0 -245 58 -423 215 -658 200 -299 505 -507 883 -601 180 -45 308 -61 535 -68
397 -11 620 34 963 196 173 82 526 274 623 338 94 63 280 216 433 356 58 53
106 93 108 88 7 -21 -50 -249 -87 -342 -44 -114 -122 -257 -180 -331 -32 -41
-60 -59 -243 -151 -264 -134 -348 -184 -446 -267 -145 -124 -202 -237 -210
-418 -6 -144 7 -213 65 -332 102 -212 281 -325 525 -334 56 -2 95 -9 110 -18
100 -66 228 -98 383 -97 67 0 122 5 140 13 29 12 32 11 80 -31 59 -53 115 -83
215 -115 66 -20 93 -23 230 -22 175 1 256 18 376 76 89 43 189 141 231 224
l30 62 53 -60 c191 -216 450 -322 750 -305 116 7 245 36 298 67 21 13 38 17
46 12 17 -14 263 -22 321 -11 28 5 88 13 135 18 255 28 452 192 537 446 24 72
27 95 28 225 0 125 -3 154 -23 210 -88 256 -364 506 -723 657 -77 32 -96 45
-120 80 -80 116 -155 309 -204 528 -110 493 -97 952 46 1610 28 132 54 242 56
244 2 3 28 -7 59 -22 71 -35 143 -37 196 -4 63 38 85 76 164 282 21 55 39 93
41 85 2 -8 9 -85 16 -170 11 -127 18 -166 39 -212 35 -75 87 -131 172 -181
l71 -42 125 0 c109 0 131 3 175 23 74 34 118 68 153 116 29 40 36 44 86 50 68
8 136 37 199 84 49 37 138 146 173 212 11 19 34 53 51 74 38 46 85 161 109
267 33 145 4 311 -82 468 -72 132 -132 195 -391 412 -357 298 -556 503 -703
724 -139 209 -229 359 -248 412 -9 27 -46 94 -82 148 -35 55 -96 169 -136 255
-39 85 -95 202 -125 260 -30 58 -55 108 -57 111 -2 4 10 10 25 14 56 13 165
61 508 220 347 161 622 274 781 320 128 37 385 93 540 117 l142 22 133 -89
c228 -152 395 -284 762 -603 181 -158 217 -180 217 -135 0 25 -341 345 -580
544 -130 108 -247 197 -333 254 l-59 39 46 13 46 14 0 62 c0 54 -21 135 -54
208 -5 11 17 4 70 -23 86 -43 96 -45 119 -22 12 13 14 27 9 63 -7 49 -29 161
-40 198 l-6 23 58 -26 c102 -44 295 -144 400 -206 125 -74 303 -207 582 -434
117 -96 217 -174 222 -174 20 0 20 22 0 50 -11 16 -110 109 -220 206 -324 287
-573 452 -931 614 l-136 62 -93 279 c-52 153 -91 281 -88 284 7 8 134 -12 255
-40 129 -31 336 -100 478 -160 228 -97 653 -337 937 -530 60 -40 108 -69 108
-64 0 5 -56 55 -124 112 -386 320 -779 535 -1262 690 -142 46 -351 97 -396 97
-13 0 -31 6 -40 13 -9 6 -46 82 -83 167 -68 158 -230 481 -267 532 l-19 28 48
68 c122 168 233 370 308 557 70 173 122 420 145 685 11 135 5 586 -10 670 -15
91 -60 181 -118 239 -98 98 -153 111 -459 111 -266 1 -346 -11 -549 -80 -317
-109 -763 -373 -994 -589 -35 -34 -70 -61 -75 -61 -6 0 -51 13 -99 30 -243 82
-538 152 -781 187 -105 14 -192 18 -450 18 -381 -1 -446 -8 -702 -81 -16 -4
-23 -1 -28 16 -18 58 -236 254 -410 370 -44 29 -123 84 -175 121 -228 162
-541 278 -900 334 -120 19 -426 28 -485 15z m4342 -8267 c-9 -16 -23 -70 -32
-119 -29 -156 -73 -225 -151 -240 -19 -3 -37 -4 -40 -1 -3 2 21 42 52 88 31
46 81 137 113 201 31 64 60 113 64 109 5 -5 2 -22 -6 -38z"/>
</g>
</svg>
